HIERARCHY
ROOT pelvis
{
	OFFSET 0.003123 -0.351407 0.012037
	CHANNELS 6 Xposition Yposition Zposition Zrotation Yrotation Xrotation 
	JOINT left_hip
	{
		OFFSET 0.058189 -0.092763 -0.026001
		CHANNELS 3 Zrotation Yrotation Xrotation
		JOINT left_knee
		{
			OFFSET 0.054695 -0.378753 -0.009396
			CHANNELS 3 Zrotation Yrotation Xrotation
			JOINT left_ankle
			{
				OFFSET -0.043453 -0.403059 -0.031876
				CHANNELS 3 Zrotation Yrotation Xrotation
				JOINT left_foot
				{
					OFFSET 0.047257 -0.057997 0.118216
					CHANNELS 3 Zrotation Yrotation Xrotation
					End Site
					{
						OFFSET 0.000000 0.000000 0.000000
					}
				}
			}
		}
	}
	JOINT right_hip
	{
		OFFSET -0.063267 -0.103908 -0.021250
		CHANNELS 3 Zrotation Yrotation Xrotation
		JOINT right_knee
		{
			OFFSET -0.044210 -0.362380 -0.016824
			CHANNELS 3 Zrotation Yrotation Xrotation
			JOINT right_ankle
			{
				OFFSET 0.015417 -0.410728 -0.020192
				CHANNELS 3 Zrotation Yrotation Xrotation
				JOINT right_foot
				{
					OFFSET -0.038812 -0.058328 0.119049
					CHANNELS 3 Zrotation Yrotation Xrotation
					End Site
					{
						OFFSET 0.000000 0.000000 0.000000
					}
				}
			}
		}
	}
	JOINT spine_1
	{
		OFFSET -0.002763 0.109891 -0.027618
		CHANNELS 3 Zrotation Yrotation Xrotation
		JOINT spine_2
		{
			OFFSET 0.009448 0.131853 -0.005940
			CHANNELS 3 Zrotation Yrotation Xrotation
			JOINT spine_3
			{
				OFFSET -0.011330 0.052235 0.028447
				CHANNELS 3 Zrotation Yrotation Xrotation
				JOINT neck
				{
					OFFSET -0.012164 0.165167 -0.031615
					CHANNELS 3 Zrotation Yrotation Xrotation
					JOINT head
					{
						OFFSET 0.024783 0.160452 0.020737
						CHANNELS 3 Zrotation Yrotation Xrotation
						End Site
						{
							OFFSET 0.000000 0.000000 0.000000
						}
					}
				}
				JOINT left_collar
				{
					OFFSET 0.046364 0.084944 -0.007220
					CHANNELS 3 Zrotation Yrotation Xrotation
					JOINT left_shoulder
					{
						OFFSET 0.119239 0.057728 -0.015461
						CHANNELS 3 Zrotation Yrotation Xrotation
						JOINT left_elbow
						{
							OFFSET 0.254123 -0.072151 -0.042459
							CHANNELS 3 Zrotation Yrotation Xrotation
							JOINT left_wrist
							{
								OFFSET 0.251987 0.023221 -0.002472
								CHANNELS 3 Zrotation Yrotation Xrotation
								JOINT left_index_1
								{
									OFFSET 0.101902 -0.008688 0.019351
									CHANNELS 3 Zrotation Yrotation Xrotation
									JOINT left_index_2
									{
										OFFSET 0.030149 -0.011154 0.001151
										CHANNELS 3 Zrotation Yrotation Xrotation
										JOINT left_index_3
										{
											OFFSET 0.006504 -0.021577 -0.002433
											CHANNELS 3 Zrotation Yrotation Xrotation
											End Site
											{
												OFFSET 0.000000 0.000000 0.000000
											}
										}
									}
								}
								JOINT left_middle_1
								{
									OFFSET 0.109398 -0.006328 -0.003981
									CHANNELS 3 Zrotation Yrotation Xrotation
									JOINT left_middle_2
									{
										OFFSET 0.026472 -0.015218 -0.004641
										CHANNELS 3 Zrotation Yrotation Xrotation
										JOINT left_middle_3
										{
											OFFSET 0.005022 -0.023347 -0.001911
											CHANNELS 3 Zrotation Yrotation Xrotation
											End Site
											{
												OFFSET 0.000000 0.000000 0.000000
											}
										}
									}
								}
								JOINT left_pinky_1
								{
									OFFSET 0.084047 -0.014539 -0.043750
									CHANNELS 3 Zrotation Yrotation Xrotation
									JOINT left_pinky_2
									{
										OFFSET 0.012124 -0.014448 -0.005375
										CHANNELS 3 Zrotation Yrotation Xrotation
										JOINT left_pinky_3
										{
											OFFSET 0.003798 -0.018853 0.000167
											CHANNELS 3 Zrotation Yrotation Xrotation
											End Site
											{
												OFFSET 0.000000 0.000000 0.000000
											}
										}
									}
								}
								JOINT left_ring_1
								{
									OFFSET 0.097444 -0.009268 -0.027345
									CHANNELS 3 Zrotation Yrotation Xrotation
									JOINT left_ring_2
									{
										OFFSET 0.023561 -0.016057 -0.001895
										CHANNELS 3 Zrotation Yrotation Xrotation
										JOINT left_ring_3
										{
											OFFSET 0.004257 -0.023548 0.000814
											CHANNELS 3 Zrotation Yrotation Xrotation
											End Site
											{
												OFFSET 0.000000 0.000000 0.000000
											}
										}
									}
								}
								JOINT left_thumb_1
								{
									OFFSET 0.040636 -0.017977 0.025611
									CHANNELS 3 Zrotation Yrotation Xrotation
									JOINT left_thumb_2
									{
										OFFSET 0.021637 -0.017639 0.011623
										CHANNELS 3 Zrotation Yrotation Xrotation
										JOINT left_thumb_3
										{
											OFFSET 0.024002 -0.008356 0.006548
											CHANNELS 3 Zrotation Yrotation Xrotation
											End Site
											{
												OFFSET 0.000000 0.000000 0.000000
											}
										}
									}
								}
							}
						}
					}
				}
				JOINT right_collar
				{
					OFFSET -0.047695 0.084339 -0.013400
					CHANNELS 3 Zrotation Yrotation Xrotation
					JOINT right_shoulder
					{
						OFFSET -0.102578 0.053524 -0.012669
						CHANNELS 3 Zrotation Yrotation Xrotation
						JOINT right_elbow
						{
							OFFSET -0.271150 -0.036492 -0.026467
							CHANNELS 3 Zrotation Yrotation Xrotation
							JOINT right_wrist
							{
								OFFSET -0.249267 -0.004533 -0.015325
								CHANNELS 3 Zrotation Yrotation Xrotation
								JOINT right_index_1
								{
									OFFSET -0.099881 -0.011783 0.019600
									CHANNELS 3 Zrotation Yrotation Xrotation
									JOINT right_index_2
									{
										OFFSET -0.030148 -0.011154 0.001151
										CHANNELS 3 Zrotation Yrotation Xrotation
										JOINT right_index_3
										{
											OFFSET -0.006505 -0.021577 -0.002432
											CHANNELS 3 Zrotation Yrotation Xrotation
											End Site
											{
												OFFSET 0.000000 0.000000 0.000000
											}
										}
									}
								}
								JOINT right_middle_1
								{
									OFFSET -0.107376 -0.009422 -0.003734
									CHANNELS 3 Zrotation Yrotation Xrotation
									JOINT right_middle_2
									{
										OFFSET -0.026472 -0.015218 -0.004641
										CHANNELS 3 Zrotation Yrotation Xrotation
										JOINT right_middle_3
										{
											OFFSET -0.005022 -0.023347 -0.001911
											CHANNELS 3 Zrotation Yrotation Xrotation
											End Site
											{
												OFFSET 0.000000 0.000000 0.000000
											}
										}
									}
								}
								JOINT right_pinky_1
								{
									OFFSET -0.082027 -0.017634 -0.043503
									CHANNELS 3 Zrotation Yrotation Xrotation
									JOINT right_pinky_2
									{
										OFFSET -0.012123 -0.014448 -0.005374
										CHANNELS 3 Zrotation Yrotation Xrotation
										JOINT right_pinky_3
										{
											OFFSET -0.003798 -0.018852 0.000167
											CHANNELS 3 Zrotation Yrotation Xrotation
											End Site
											{
												OFFSET 0.000000 0.000000 0.000000
											}
										}
									}
								}
								JOINT right_ring_1
								{
									OFFSET -0.095423 -0.012362 -0.027099
									CHANNELS 3 Zrotation Yrotation Xrotation
									JOINT right_ring_2
									{
										OFFSET -0.023561 -0.016057 -0.001895
										CHANNELS 3 Zrotation Yrotation Xrotation
										JOINT right_ring_3
										{
											OFFSET -0.004257 -0.023548 0.000816
											CHANNELS 3 Zrotation Yrotation Xrotation
											End Site
											{
												OFFSET 0.000000 0.000000 0.000000
											}
										}
									}
								}
								JOINT right_thumb_1
								{
									OFFSET -0.038613 -0.021074 0.025861
									CHANNELS 3 Zrotation Yrotation Xrotation
									JOINT right_thumb_2
									{
										OFFSET -0.021636 -0.017639 0.011623
										CHANNELS 3 Zrotation Yrotation Xrotation
										JOINT right_thumb_3
										{
											OFFSET -0.024004 -0.008353 0.006547
											CHANNELS 3 Zrotation Yrotation Xrotation
											End Site
											{
												OFFSET 0.000000 0.000000 0.000000
											}
										}
									}
								}
							}
						}
					}
				}
			}
		}
	}
}
MOTION
Frames: 4
Frame Time: 0.050000
0.000027 0.941585 0.000587 1.819851 -2.323494 -2.163495 4.649385 0.205933 2.630145 -5.636825 0.097057 6.826582 4.604615 11.394657 4.262832 0.000000 0.000000 0.000000 -4.902412 -0.075309 4.104655 1.286642 -0.002671 2.121902 1.676001 2.216503 1.610395 0.000000 0.000000 0.000000 -2.443343 -0.603310 9.644768 -8.697331 -0.724503 -18.337077 11.508648 1.921342 23.195336 1.167662 2.131092 -14.767470 0.000000 0.000000 0.000000 -9.846190 0.220490 -1.282323 -57.341064 -5.120927 -9.120956 -19.397782 -32.767158 9.169571 -4.007889 3.855538 23.192785 -21.499895 4.832793 0.270158 -8.034983 9.101649 13.273983 0.000000 0.000000 0.000000 -15.258550 -0.292288 -3.538506 -31.335712 6.983410 -0.254764 0.000000 0.000000 0.000000 8.257898 -15.290931 -7.878677 -61.514919 -16.422657 -28.629319 0.000000 0.000000 0.000000 -13.101595 -0.409859 -2.023336 -48.327111 -1.737343 -12.345464 0.000000 0.000000 0.000000 6.846330 31.345780 31.487325 1.870162 -18.905694 -7.202219 0.000000 0.000000 0.000000 9.784947 -3.125184 -2.976220 57.815472 4.394379 -5.246158 13.269269 30.443169 2.546688 6.282434 0.282431 26.775625 22.122154 -3.315992 -0.228749 14.534286 -12.725446 13.434958 0.000000 0.000000 0.000000 18.098861 0.507567 -4.276795 33.536111 -5.768055 -4.816739 0.000000 0.000000 0.000000 -3.144217 16.210976 -9.072176 59.695780 7.488596 -21.548350 0.000000 0.000000 0.000000 16.734645 0.688007 -2.727815 47.828509 1.178600 -13.983749 0.000000 0.000000 0.000000 -4.071401 -31.867184 31.600803 -4.426688 18.014719 -8.226521 0.000000 0.000000 0.000000 
0.000027 0.941746 0.000587 1.818237 -2.321271 -2.183328 4.653141 0.208384 2.653417 -5.636385 0.097325 6.820148 4.583481 11.380339 4.308414 0.000000 0.000000 0.000000 -4.901450 -0.077521 4.130782 1.287401 -0.002954 2.113480 1.698649 2.216876 1.671264 0.000000 0.000000 0.000000 -2.464282 -0.604330 9.679912 -8.649262 -0.738504 -18.325360 11.591932 2.536945 22.973450 1.099473 2.130138 -14.721898 0.000000 0.000000 0.000000 -9.847733 -0.187888 -1.107538 -57.294757 -5.296388 -9.151773 -19.365461 -32.464540 9.035283 -4.104204 4.004643 24.221098 -21.642711 4.766309 0.162504 -9.424662 8.805324 11.509750 0.000000 0.000000 0.000000 -17.176500 0.940546 -3.588014 -30.374063 5.082299 -3.626389 0.000000 0.000000 0.000000 8.711959 -17.531848 -9.296057 -64.275787 -12.516849 -23.666115 0.000000 0.000000 0.000000 -13.380154 -2.367590 -2.892033 -48.239542 0.916819 -8.080391 0.000000 0.000000 0.000000 6.309041 30.250571 30.353794 -0.944000 -16.413367 -4.920950 0.000000 0.000000 0.000000 9.786417 -3.643673 -3.246825 57.905387 3.991271 -5.283306 13.360476 30.495475 2.593864 6.716078 0.231993 26.948427 21.566364 -3.922552 -0.011829 13.628305 -12.264251 13.317226 0.000000 0.000000 0.000000 17.579056 -0.061679 -3.930283 32.812282 -5.727022 -4.729722 0.000000 0.000000 0.000000 -2.370079 16.045021 -8.721671 60.114158 7.899222 -22.219040 0.000000 0.000000 0.000000 14.900463 4.252330 -3.709674 47.897970 -0.822690 -10.288570 0.000000 0.000000 0.000000 -3.430176 -31.848850 31.504450 -8.644484 18.732918 -10.772550 0.000000 0.000000 0.000000 
-0.000032 0.941746 0.000587 1.825864 -2.345870 -2.183475 4.649656 0.209801 2.662454 -5.643663 0.099616 6.808277 4.589034 11.396094 4.321141 0.000000 0.000000 0.000000 -4.905540 -0.076105 4.122041 1.281710 -0.002325 2.121254 1.705249 2.235412 1.662986 0.000000 0.000000 0.000000 -2.482512 -0.602973 9.665392 -8.724177 -0.707465 -18.307202 11.445788 1.962854 22.658467 1.163214 2.050881 -14.229693 0.000000 0.000000 0.000000 -9.853766 0.258461 -1.309595 -57.344274 -4.204159 -9.289667 -19.816673 -33.241280 9.438406 -3.747668 3.644674 23.185689 -21.399297 5.579472 0.449988 -7.287305 9.703427 14.983785 0.000000 0.000000 0.000000 -16.422750 1.579297 -3.098725 -28.931255 4.911015 -2.949242 0.000000 0.000000 0.000000 6.023590 -12.461986 -6.140403 -60.723673 -12.573743 -25.414270 0.000000 0.000000 0.000000 -14.369499 1.786837 -1.410375 -46.852798 -0.918241 -10.935284 0.000000 0.000000 0.000000 6.373055 32.371433 32.308593 2.033436 -19.060423 -7.381218 0.000000 0.000000 0.000000 9.457480 -2.397011 -2.474489 58.150287 3.841592 -5.458603 13.293477 30.675827 2.574396 5.547366 0.672899 25.106947 21.555924 -2.927371 -0.143433 12.513362 -11.654165 13.785124 0.000000 0.000000 0.000000 17.741848 1.641618 -4.557539 31.879653 -8.200990 0.902641 0.000000 0.000000 0.000000 -2.363677 13.017156 -7.083687 59.460204 12.790132 -26.938913 0.000000 0.000000 0.000000 15.665961 2.165025 -3.015281 47.920998 -1.003522 -8.454741 0.000000 0.000000 0.000000 -4.456712 -31.183452 31.075838 -3.566260 17.167045 -7.354177 0.000000 0.000000 0.000000 
-0.000150 0.941746 0.000587 1.851176 -2.365167 -2.183675 4.566259 0.213688 2.666978 -5.533286 0.084027 6.803536 4.595892 11.408149 4.321414 0.000000 0.000000 0.000000 -4.923161 -0.073714 4.115088 1.273204 -0.001599 2.126731 1.706559 2.249218 1.647051 0.000000 0.000000 0.000000 -2.539558 -0.600586 9.661042 -8.690777 -0.735722 -18.362454 11.421674 1.992619 22.747025 1.133114 2.055927 -14.256688 0.000000 0.000000 0.000000 -9.820535 0.278952 -1.318987 -57.443625 -4.214494 -9.307082 -19.734102 -33.272815 9.423758 -3.841378 4.627157 23.380462 -20.590706 4.750541 0.346300 -9.583415 9.387850 12.764800 0.000000 0.000000 0.000000 -15.122271 -1.187358 -3.882485 -28.903221 7.421115 1.640382 0.000000 0.000000 0.000000 11.144766 -15.060730 -7.129287 -60.763069 -15.513416 -28.543939 0.000000 0.000000 0.000000 -12.666654 -1.266166 -2.303531 -48.084707 -1.632440 -12.319184 0.000000 0.000000 0.000000 6.557569 31.294257 31.370907 2.138707 -18.977893 -7.374878 0.000000 0.000000 0.000000 9.381545 -2.394859 -2.459715 58.256429 3.883329 -5.451066 13.039497 30.653610 2.517678 6.049133 1.278556 25.411610 22.471279 -3.303366 -0.186160 12.634792 -11.419163 13.231598 0.000000 0.000000 0.000000 17.825940 0.289328 -4.075906 32.528078 -5.002811 -5.306582 0.000000 0.000000 0.000000 -0.067714 11.521844 -6.998849 57.804431 10.565598 -25.456769 0.000000 0.000000 0.000000 16.185830 0.719473 -2.603993 48.878742 -0.760462 -9.087909 0.000000 0.000000 0.000000 -4.622280 -31.218476 31.089325 -2.399036 18.005716 -7.137941 0.000000 0.000000 0.000000 
